# xmcd
#
# Track frame offsets: 
#        150
#        17440
#        31747
#        50062
#        64287
#        82210
#        97632
#        111185
#        127395
#        141357
#
# Disc length: 2100 seconds
#
# Revision: 1
# Processed by: cddbd v1.4PL0 Copyright (c) Steve Scherf et al.
# Submitted via: ExactAudioCopy v0.90b3
#
DISCID=8a08320a
DTITLE=Earl Thomas Conley - Love Out Loud
DYEAR=1900
DGENRE=Country
TTITLE0=Love Out Loud
TTITLE1=Silent Treatment
TTITLE2=I Need A Good Woman Bad
TTITLE3=Holding Her And Loving You
TTITLE4=What She Is (Is A Woman In Love)
TTITLE5=Smokey Mountain Memories
TTITLE6=Shadow Of A Doubt
TTITLE7=Once In A Blue Moon
TTITLE8=We've Got All Night
TTITLE9=Feels Like A Saturday Night
EXTD=
EXTT0=
EXTT1=
EXTT2=
EXTT3=
EXTT4=
EXTT5=
EXTT6=
EXTT7=
EXTT8=
EXTT9=
PLAYORDER=
